<?xml version="1.0" encoding="utf-8"?>
<!-- Generator: Adobe Illustrator 23.0.3, SVG Export Plug-In . SVG Version: 6.00 Build 0)  -->
<svg version="1.1" id="Calque_1" xmlns="http://www.w3.org/2000/svg" xmlns:xlink="http://www.w3.org/1999/xlink" x="0px" y="0px"
	 viewBox="0 0 214 241" style="enable-background:new 0 0 214 241;" xml:space="preserve">
<style type="text/css">
	.st0{fill:#FFFFFF;}
</style>
<g>
	<path class="st0" d="M180.8,119.9c0,8.7,0.1,17.3,0,26c-0.2,10.8-4.6,19.5-13.8,25.1c-15.4,9.3-31,18.2-46.8,26.8
		c-8.5,4.6-17.9,4.6-26.4-0.1C78,189.1,62.5,180.1,47,170.9c-9.3-5.6-13.6-14.4-13.8-25.1c-0.2-16.8-0.3-33.7,0-50.5
		c0.2-12.2,6.1-21.2,16.6-27.2c14-8.1,28-16.1,42-24.1c9.9-5.6,20.3-5.7,30.1-0.4c14.8,7.9,29.4,16.4,43.8,25
		c10.1,6.1,15.6,15.1,15.2,27.3C180.6,103.9,180.8,111.9,180.8,119.9z M129.1,147.5c0-14.4,0-28.3,0-42.8c5.8,0,11.1,0,16.3,0
		c0-4,0-7.4,0-11.1c-15.7,0-31,0-46.7,0c0,3.7,0,7.1,0,11.2c5.5,0,10.7,0,16.6,0c0,14.5,0,28.4,0,42.6
		C120,147.5,124.1,147.5,129.1,147.5z M77,147.5c4.6,0,8.9,0,13.4,0c0-18.1,0-35.8,0-53.6c-4.6,0-9,0-13.4,0
		C77,111.9,77,129.5,77,147.5z"/>
</g>
</svg>
