<svg id="Calque_1" data-name="Calque 1" xmlns="http://www.w3.org/2000/svg" viewBox="0 0 591.29 591.29"><defs><style>.cls-1,.cls-51{fill:#fff;}.cls-2{fill:#010101;}.cls-3{fill:#bfc0c1;}.cls-4{fill:#c6c5c4;}.cls-5{fill:#e9f0f8;}.cls-6{fill:#cfd4d7;}.cls-7{fill:#e6eef6;}.cls-8{fill:#f6f9fd;}.cls-9{fill:#a1a2a1;}.cls-10{fill:#88847d;}.cls-11{fill:#1b140c;}.cls-12{fill:#695718;}.cls-13{fill:#040305;}.cls-14{fill:#29354c;}.cls-15{fill:#10101f;}.cls-16{fill:#141526;}.cls-17{fill:#181a2a;}.cls-18{fill:#6b717b;}.cls-19{fill:#5d6370;}.cls-20{fill:#b0b0b7;}.cls-21{fill:#697a90;}.cls-22{fill:#a1b1c2;}.cls-23{fill:#cad4da;}.cls-24{fill:#1a1b2b;}.cls-25{fill:#79170f;}.cls-26{fill:#87731a;}.cls-27{fill:#a28f1c;}.cls-28{fill:#634711;}.cls-29{fill:#816516;}.cls-30{fill:#503714;}.cls-31{fill:#231e17;}.cls-32{fill:#d5cea7;}.cls-33{fill:#100b13;}.cls-34{fill:#130605;}.cls-35{fill:#695717;}.cls-36{fill:#0b1019;}.cls-37{fill:#7b611a;}.cls-38{fill:#b3b0b1;}.cls-39{fill:#776b62;}.cls-40{fill:#b4b1b2;}.cls-41{fill:#c5c5c4;}.cls-42{fill:#b5b3b4;}.cls-43{fill:#a8a09e;}.cls-44{fill:#e8eff6;}.cls-45{fill:#a4987a;}.cls-46{fill:#8f804c;}.cls-47{fill:#928d83;}.cls-48{fill:#938d84;}.cls-49{fill:#7b6f60;}.cls-50{fill:#796d64;}.cls-51{stroke:#1d1d1b;stroke-miterlimit:10;stroke-width:0.18px;}.cls-52{fill:#451011;}.cls-53{fill:#040404;}.cls-54{fill:#19132f;}.cls-55{fill:#050404;}.cls-56{fill:#0d0a16;}.cls-57{fill:#0b080d;}.cls-58{fill:#64140f;}.cls-59{fill:#ab3628;}.cls-60{fill:#961a14;}.cls-61{fill:#461011;}.cls-62{fill:#1e090a;}.cls-63{fill:#020202;}.cls-64{fill:#020303;}.cls-65{fill:#c2d1dc;}.cls-66{fill:#9eb8c9;}.cls-67{fill:#cedae3;}.cls-68{fill:#cedbe4;}.cls-69{fill:#b0c5d4;}.cls-70{fill:#a5becf;}</style></defs><title>pinguLogo</title><circle class="cls-1" cx="295.65" cy="295.65" r="295.65"/><path class="cls-2" d="M113,526.94c2-3,2.86-6.71,3.4-10.36a66.46,66.46,0,0,1,6.24-19.39c4.8-9.86,10.09-19.48,14-29.77,1.9-5,5.27-9.23,8.26-13.62,3.47-5.09,6.84-10.22,8.65-16.19,1.43-2.47,3.17-4.77,4.11-7.51a5.41,5.41,0,0,1,1.73-2.28,23.43,23.43,0,0,0,5.52-5.68c5.61-7.7,13.37-12.75,21.21-17.74,11-2.65,20.27-9.18,30.31-14,3-1.43,4-3.27,1.14-5.56-4.36-3.53-5.15-7.63-3.44-12.87A10.34,10.34,0,0,0,212,362.1a19.57,19.57,0,0,1-4.58-11.4,8.71,8.71,0,0,0-.83-3.38c-7.53-15.1-8.85-31.24-8.11-47.74a75.52,75.52,0,0,1,2.12-11.65,97.68,97.68,0,0,1,15.19-32.46,102.09,102.09,0,0,1,22.35-22.82,121.15,121.15,0,0,1,13.65-8.86c3.69-1.85,7.41-3.68,11.25-5.23a109,109,0,0,1,32.44-8.42c2.42-.24,5-.31,7-1.92a8.21,8.21,0,0,1,2.76-1.41,18.14,18.14,0,0,1,4.77,0c8.56,1.32,17,3.13,25.48,4.93A107.33,107.33,0,0,1,350,216.46c7.85,3.3,15.3,7.39,22.78,11.44a4,4,0,0,1,2.25,1.55c27.69,18.3,43.62,43.62,45.93,77.06,1.36,3.58-.34,6.88-1,10.28-.45,12.17-4.32,23.35-10,34a8.46,8.46,0,0,0-.69,7.4c8.56,25.48,17.28,50.91,25.18,76.59a50.42,50.42,0,0,0,7.64,14.84c3.56,5,7.07,10,8.89,16a6.1,6.1,0,0,1,.71,2.9c-3.27,4.62-2.47,8.64,1.12,12.91,2.29,2.75,3.59,6.35,4.67,9.87a25.13,25.13,0,0,0,5,9.12,10.21,10.21,0,0,1,1.5,4.28c-.05,1.59.34,3.63-1.78,4-1.6.29-2.58-1.26-3.36-2.53a24.5,24.5,0,0,0-3.5-4.77c-3.87-6.13-7.26-12.54-10.69-18.92C439.71,471,431,462.32,423.26,453c-9.08-13.46-20.56-24.6-33.31-34.53a88.52,88.52,0,0,0-17.15-10.55,34.42,34.42,0,0,0-28.5-4.22,155.06,155.06,0,0,1-20.46,4,7.92,7.92,0,0,1-4.39-.36c-2-2.81-.95-4.66.33-5.31,6.56-3.37,12.49-7.67,15.19-14.3,5.5-9.88,11.4-19.59,11.58-31.44a17.6,17.6,0,0,0-3.38-11.23c-6.79-15.34-20.43-19.75-35.34-22.06-2.68-.41-5.22.77-7.77,1.47a72.81,72.81,0,0,1-15.3,5.45c-3.1.7-4.94,3.13-7.12,5.1-4.3,2.91-8,6.36-10.1,11.24-6.35,15.18-2.94,32.51,12.6,44,3.18,2.37,6.52,4.57,9.17,7.59,1.63,4.11,14.53,3.64,16.55,7.36-.48.77-9.15,2.47-9.93,2.27-6.24-1.53-12.92.47-19-2.69-3.66-1.91-7.49-.17-11.2.55a25.57,25.57,0,0,0-8.17,4.2c-9.43,5.51-18.82,11.07-27.45,17.81-9.83,5.71-17.44,13.81-24.1,22.8-11.47,15.5-22.67,31.21-31.57,48.39-8.42,11.34-10.54,25.16-14.87,38.08-1.23,3.65-.5,7.88-1.87,11.67" transform="translate(-1.99 -149.55)"/><path class="cls-2" d="M141.44,549.59a4.16,4.16,0,0,0,1.25-4.57c-2.43-6.62-.47-12.84,1.83-18.94,3.64-9.66,5.85-19.79,10.19-29.19-6.61,12.35-11.73,25.37-17.64,38" transform="translate(-1.99 -149.55)"/><path class="cls-3" d="M400.6,552.23a2.54,2.54,0,0,1-2.4-1.47c-4.7-7.5-10.63-9-18.16-4.63" transform="translate(-1.99 -149.55)"/><path class="cls-3" d="M286.86,546.33c-1.3-2.68-.44-4.89,1.95-6.48,2.62-1.74,4.34,0,6,1.72.69.72,1.48,1.95,2.33,1.71,4.2-1.15,7.35.6,10.44,3.1a1.93,1.93,0,0,0,3-.83c.69-1.31,0-2.31-1.12-2.91-2.47-1.35-5.26-2.17-7.2-4.4-1.21-1.39-2.7-2.84-1.5-4.82a7.27,7.27,0,0,1,6.31-3.44c2.29-.06,2.38,1.86,2.74,3.49.51,2.31,1.8,3.89,5,4.36-.68-3.06-1.56-5.81-2.23-8.59-1.26-5.15.56-7.44,5.9-7.85,4.09-.31,7.45,1.21,11.05,4.35-.44-2.88-2.43-3.37-3.53-4.57-.82-.89-1.56-1.91-1.14-3.11s1.8-1.31,3-1.29c1,0,2,.29,3,.39,3.46.37,5.31-.88,5.41-4.67.13-4.66.74-4.86,4.76-2.14,1,.66,1.93,1.31,2.93,1.92,2.54,1.58,5,2.54,7.8.31,2.58-2.08,3.07-4.59,2.1-7.59a15.13,15.13,0,0,1-.83-3.39,7.84,7.84,0,0,1,3.89-7.58c1.11-.74,2.43-1.43,3.7-.52s.7,2.4.3,3.65-1,2.13-1,3.33a3.19,3.19,0,0,0,2.83,3c1.75.4,2.33-.84,2.7-2.22.21-.81.26-1.65.48-2.45,2-7.54,7-11.4,14.81-11.46,3,0,6.11-.52,9,.16,5.5,1.29,8.2-1.11,10.38-5.82,2.48-5.34,5-6.05,11-4.44,1.26,1.12,1.87,2.77,3.15,3.86,3.24,2.75,3.63,6,2.3,9.92-1.89,5.51-1.59,6.22,3.51,9.2,2.62,1.54,4.44,3.22,2.59,6.34-2.59,4.38-2.16,8.94-1.19,13.59a26.32,26.32,0,0,1,.54,8.93c-.39,2.89-1.84,3.3-4.07,1.62a23.18,23.18,0,0,1-2.6-2.35c-3-3-6.21-4.47-10.23-1.89-2.26,1.45-4.54.56-6.74-.16-4.68-1.53-9-1.88-13,1.87-2.62,2.44-5.56,1.3-8.32-.3-1.69-1-3.38-2.38-5.53-1.23-.46.24-.36.91-.07,1.34,1.34,2,3.36,1.81,5.39,1.62,5.37-.52,10.13.29,14,4.78,2.28,2.66,6.09,2.4,9.36,2.85,2.14.29,4.37.19,6.36,1.11,4.34,2,8.45,2.43,12.87-.09,2.93-1.68,5.9-.21,8.36,1.67,3.3,2.53,2.74,6.54-1.27,7.55" transform="translate(-1.99 -149.55)"/><path class="cls-3" d="M274.35,551.75c1.49-1.14,2.92-.57,4,.57" transform="translate(-1.99 -149.55)"/><path class="cls-3" d="M300.52,551.85c-1.06-1.31-2.72-3-4.14-1.55" transform="translate(-1.99 -149.55)"/><path class="cls-3" d="M240.26,537.72c-.16-2,1.71-3.85,3.11-5.55,2.6-3.16,2.31-4.56-1.08-6.71-6-3.81-6.28-5.16-1.08-10.43,4.65-4.7,7.68-10,7.47-16.78.86-4.25,2.65-8.21,3.82-12.36,1.22-4.31,2.35-8.62,1.36-13.22a7.68,7.68,0,0,1,3.09-7.92c5-4,6.8-9.28,6.52-15.41a22.24,22.24,0,0,1,3.35-13.25c4-6.41,3.6-8.09-2-13.66a4.39,4.39,0,0,1-1.32-2.06c2.54-5.61,7.36-3.91,11.73-3.69,2.28.84,4.52,1.74,6,3.77a4.22,4.22,0,0,1-1,5.44c-4.37,3.54-5.18,8.37-5.11,13.49.07,4.74,0,9.33-3.58,13.09a3.84,3.84,0,0,0-.63,4.24c2.92,7-.33,12.21-4.92,17-1.84,1.93-4,3.6-5.39,5.88-1,1.54-2.3,3.5,1.34,3.52,3.14,0,2.84,2.24,2.42,4.26-.86,4.24-2.13,8.4-2.63,12.72-.11,1-.6,2-.34,3,2.39,8.52-2.57,13-9,16.81-.43.25-.73.65-.95,2.05,5.7.3,8.62,4.32,11,9,2.82,5.49,2.77,5.75-3.65,7.29,4.78,3,6.21,6.87,3.93,12" transform="translate(-1.99 -149.55)"/><path class="cls-4" d="M419.34,550.49c1.43-2.63,3.15-4.16,6.27-3.9a2.62,2.62,0,0,0,3-2,3.15,3.15,0,0,0-1.6-3.8c-3-1.78-6-3.19-9.18-.49a6.45,6.45,0,0,1-7.05,1.06c-5.38-2.77-11.27-2.48-16.9-3.67-1.85-.39-3.72-.82-4.7-2.48-2.92-4.95-7.58-4.76-12.29-4.36-1.28.11-2.46,1.09-3.84.41-2.12-1.05-4.87-2.19-4-4.92,1-3,3.84-1.7,5.9-1a29,29,0,0,1,4.29,2.5c1.73,1,3.67,1.38,5-.29,4.2-5.17,9.31-4.18,14.52-2.35,2.61.91,4.6,1.2,7.22-.79s6.19-.82,8.56,1.64c1.7,1.76,2.93,4,4.91,5.53,2.27-5.52.93-10.24,0-14.78a13,13,0,0,1,1.86-10.31c1.59-2.45,1-3.6-1.51-4.9-7.07-3.64-7-3.77-4.32-11.51,1-2.82,1.26-5.58-1.8-7.46a6.46,6.46,0,0,1-2.93-5c.85-2.35,3.13-2.8,5-3.69s4.1-1.44,5.36-3.41c1.7-3,4.07-4.76,7.72-4,1,.3,2,.63,2.09,1.95-3.25,1.63-6.1,3.29-7.25,7.39-1.94,7-2.27,6.91,3.61,11.47a9.71,9.71,0,0,1,3.61,5.8c1.18,5.35,2.32,10.69,1.24,16.25-.5,2.62-1.05,5.18,3.3,5.52a4.19,4.19,0,0,1,3.09,6.47,10.18,10.18,0,0,0-.86,9.45,4.34,4.34,0,0,1-.07,3c-1.31,3.45-.63,5.95,2.72,8,3,1.8,2.28,4.07-.22,6-1.75,1.32-2.89,2.62,0,3.85" transform="translate(-1.99 -149.55)"/><path class="cls-4" d="M370.42,549.4a47.56,47.56,0,0,1,15.86-7.55c3.19-.75,5.72,2.31,8.68,3.31,2.19.74,5.81,0,4,4.47-.4,1,.47,2,1.78,1.48" transform="translate(-1.99 -149.55)"/><path class="cls-5" d="M194,551.2c-2.79-2.14-2.13-4.31,1.37-5.15,2-.46,2.25-.69,2.32-3,.26-7.88.82-16,8.71-20.77a4.17,4.17,0,0,0,2.34-4c-.12-5.14,2.24-9.36,5.45-13.07,4.92-5.68,8.19-11.79,8.84-19.59s4.55-15.26,5.08-23.34c.21-3.23,3.38-4.77,5.54-6.8,4.11-3.86,4.17-4.51.9-9a12.92,12.92,0,0,1-.86-1.23c-1.77-3.36,2.93-18.74,6.29-20.55a2.89,2.89,0,0,1,1.94-.26c2.41,3.07,5.19,4.16,9.12,2.61,2.95-1.16,4.78.43,5,3.63s-.11,6.34,1.54,9.26c1.23,2.19,1.72,4.46-.69,6.23-2.69,2-2.83-2-4.92-2.16a8.21,8.21,0,0,0-1.11,6.56c.65,2.56,1.14,4.87-1.27,6.8a1.32,1.32,0,0,0-.4,1.79c3.05,3.79.09,6.47-1.68,9.35-1,1.57-2.27,3.09-2.38,4.9-.39,6.6-4.79,10.75-9,15a13.72,13.72,0,0,0-4.11,7.23,6.74,6.74,0,0,1-1.09,3.3c-5.05,5.78-4.18,13-4.82,19.8-.29,3.12-1,5.56-4.54,6.18-1,.18-2.07.67-2,1.87.33,4.93-1.22,9.84.5,14.85" transform="translate(-1.99 -149.55)"/><path class="cls-5" d="M170.64,550.84c-.38-2.75-1.17-6,1.52-8.37,2.9.9,2.75,3.46,2.88,5.69" transform="translate(-1.99 -149.55)"/><path class="cls-6" d="M218.5,540.86c-1.27-3-.72-6.22-.41-9.34.1-1.12,1-2.22.38-3.36-2-3.65-.56-4.74,3.09-4.55,2,.1,3.45-1,3.18-3-.69-5,2.06-9.8.68-14.8-.17-.6-.36-1.55,0-1.86,6.66-6.75,7.29-17.65,15.88-23.05.41-.26,1.07-.61,1.09-.95.36-6.57,3.45-12,7.21-17.08a1.46,1.46,0,0,0-.7-2.12c-4.63-2.19-2.28-3.58.53-5,1.25-.61,1.9-1.73,1-2.8-2-2.27-1.2-4.53-.65-7,.43-1.95.22-4.56,2.69-4.62s2,2.95,3,4.63c2-.94,3.35-2.43,1.83-4.28-2.62-3.18-2.47-6.76-2.32-10.41s-1.38-4.25-4.59-2.95c-5.33,2.14-6.53,1.5-8.49-3.75-.41-1.13.21-1.89.93-2.63,2.91-1.44,5-5,9-3.7.55,1.95,1,3.64,3.83,2.29,2.63-1.27,5.53-2,8.28,0,8.28,4.63,9.26,8.41,4,16.43-2.05,3.17-3.33,6.37-3.09,10.25.49,7.62-.79,14.56-7.94,19.12a4.31,4.31,0,0,0-1.91,4.4c2.52,9.76-2.47,18.07-4.95,26.86a8.13,8.13,0,0,0-.14,1,2.83,2.83,0,0,1-1.3.71c-6.9.72-6.93.7-8.3,7.73-1.32,6.82-4.3,13.38-3.17,20.58a3,3,0,0,1-.28,2c-4,6-3.39,12.59-2.66,19.22a1.82,1.82,0,0,1-.06,1" transform="translate(-1.99 -149.55)"/><path class="cls-1" d="M447.45,511.46c-.61-3.08-3.05-5.3-3.43-8.22-1.14-8.55-4.24-16.35-8.13-23.94-.73-1.44-1.26-3.15,0-4.73,1.71-1,3,.13,4.31.89,2.36,1.71,3.15,4.73,5.43,6.51L456,500.64c8.48,13,13.05,27.57,18.19,42" transform="translate(-1.99 -149.55)"/><path class="cls-7" d="M436.39,550.29c0-2.25,2-2.81,3.56-3.7,2.41-1.37,2.13-2.91-.17-3.91-4.41-1.93-5.66-4.67-3.18-9a4,4,0,0,0-.14-3.36c-2-3.35-1.83-6.23,1.11-8.9,1.49-1.35.42-2.86-.08-4.14-.67-1.66-2.29-1.87-3.82-1.4-3.23,1-3.75,0-3.11-3.13a35.06,35.06,0,0,0,.23-14.71c-1-4.42-1-9.44-6.84-11a4.89,4.89,0,0,1-2.9-3.27c-1.83-5.4,4.34-14.89,9.93-15.29a2.46,2.46,0,0,1,2.14-.31c3.1,2.14,7.61,3.13,6.93,8.4l-3.22-1.9c-2.49-.39-2.18,1.11-1.93,2.73,2,12.47,3.58,25,9.85,36.34,3.86,7,4.23,15,4.36,22.83" transform="translate(-1.99 -149.55)"/><path class="cls-1" d="M144.63,514.34c2.75-6.41,5.9-12.84,9-19.18.57-1.16.73-3.07,2.38-2.47s.59,2.19.15,3.38c-4.63,12.53-8.79,25.21-12.58,38a10.46,10.46,0,0,0-.65,4.38" transform="translate(-1.99 -149.55)"/><path class="cls-8" d="M447.87,540.81c0-11.76-1.84-22.92-7.55-33.55-4.58-8.52-5-18.41-6.48-27.87a28.32,28.32,0,0,0-.6-2.91c-.3-1.13-.91-2.53.23-3.2,1.32-.77,2.45.34,3.36,1.35-1.33,2.63.41,4.69,1.42,6.77a124.38,124.38,0,0,1,6.54,17.52c3.29,10.5,5,21.28,7.62,31.88.87,3.55,1.71,7.08,1.45,10.79a7.77,7.77,0,0,0,.34,3.44" transform="translate(-1.99 -149.55)"/><path class="cls-9" d="M168.45,545.58a97.92,97.92,0,0,1,5.7-24.59c.69-1.87.91-4.39,3.85-4.38.27.42.68.87.59,1.35-1.61,8.26-3,16.58-5.83,24.54" transform="translate(-1.99 -149.55)"/><path class="cls-4" d="M232.17,542.14c-.66-2.63-.94-5.49.85-7.69,2.64-3.25,3-6.86,2.81-10.77-.51-8.28,3.95-15.7,4.24-23.87.07-2.08,2.18-2.31,3.9-2.14,2,.2,3.9.63,5.86,1,.57,7.07-2.8,12.38-7.59,17.11-5.37,5.31-5.33,5.37,1,8.65,4.3,2.2,4.73,5.18,1.24,8.4a10.87,10.87,0,0,0-3.68,9.34" transform="translate(-1.99 -149.55)"/><path class="cls-10" d="M165.64,551.21c.62-2.26.89-5.07,4.08-5.58" transform="translate(-1.99 -149.55)"/><path class="cls-11" d="M154.77,551.63" transform="translate(-1.99 -149.55)"/><path class="cls-12" d="M154.77,551.63l2-3.16a3.18,3.18,0,0,1,1.12,2.34" transform="translate(-1.99 -149.55)"/><path class="cls-13" d="M199.82,299.62c0,11.44-.63,22.92,3,34,.67,2,1.39,4.07,2,6.12,1.45,4.52,4.37,8.5,4.19,13.66-.09,2.78,1.71,5.43,3.67,7.45,3.92,4.05,4,8.75,2.19,13.42-1.38,3.6-.65,6,2.2,8.19a31.71,31.71,0,0,1,3.53,3.52c1.43,1.52,1.58,3-.56,3.94-11.42,5.22-21.6,13.17-34.27,15.68,1.14-5.31,5.63-7.83,9.39-10.77,2.4-1.88,4.64-3.61,5.76-6.55a10.27,10.27,0,0,1,3.89-4.38c4.12-3.05,4.1-3.26.22-6.95-1.67-1.59-3.49-3.06-4.33-5.33l-6-6.91c-3-4.14-4.85-9-7.93-13.11-5.87-15.49-13.18-30.77-7.08-48,2.81-7.1,2.81-7.1,8.16-1.28,3,3.26,4.68,3.25,7.67,0C196.74,301.07,197.47,299.06,199.82,299.62Z" transform="translate(-1.99 -149.55)"/><path class="cls-14" d="M216.88,255.65a112.21,112.21,0,0,0-15.06,32c-4,2.24-15.37.46-16.22,0-1.29-2.7.81-5.33.12-8,4.64-13.68,8.76-28,19.5-38.16,12.92-12.29,28.12-21.55,44.7-28.36a8,8,0,0,1,1.93-.32c1.27,3.36-1.69,3.91-3.5,4.88-4.23,2.25-8.86,3.7-12.84,6.47-3.13,2.18-6.37,4.19-8.77,7.26a10,10,0,0,1-6.66,4c-4.92.55-7.73,3.35-9.58,7.64.39.78.6,0,.8-.15s.38-.54.6-.79c1-1.14,2-2.57,3.69-1.52s1,2.64.6,4.08c-.31,1.29-.68,2.56-1.09,3.82-.69,2.07-1.69,4.09,1.55,5C217.48,253.76,217.42,254.86,216.88,255.65Z" transform="translate(-1.99 -149.55)"/><path class="cls-15" d="M200.76,371.66c2.5,2.13,5.16,4.11,7.46,6.44,2.11,2.14,2.29,4.39-1,5.82a9.91,9.91,0,0,0-6,6.77,6.41,6.41,0,0,1-3.5,4c-5,2.52-8.37,6.83-11.9,11-9.15,6-17.57,12.89-24,21.91a2.47,2.47,0,0,1-2.11,1.05c.77-5.87,5.61-9.14,8.61-13.58.73-.69,1.62-1.18,2.35-1.86,1.74-1.64,1.56-2.83-.87-3.43-2.62-.64-4.65-1.86-4.76-4.93a6.18,6.18,0,0,1,2.23-3.72c5.16-4.77,9.39-10.47,14.84-14.95,3.32-4.2,8.59-6.16,11.92-10.36C196.33,374.49,199.43,374.52,200.76,371.66Z" transform="translate(-1.99 -149.55)"/><path class="cls-16" d="M216.88,255.65c0-.16,0-.4-.12-.48-4-3.21-3.94-3.19-2-10,.35-1.26,2.09-3.08.21-3.9s-2.06,1.63-2.82,2.78-1.29,3.2-3.2,2-.13-2.52.5-3.75c2.19-4.24,4.49-8,10.28-7.88a7.42,7.42,0,0,0,5.16-2.65c5.42-6.93,12.9-10.58,20.64-14,2.4-1.07,5.73-1.34,6.31-4.9,5.59-1.8,10.88-4.59,16.82-5.31a7.85,7.85,0,0,0,5.26,1.06c10.26-1.67,20.59-.87,30.89-.8a2.17,2.17,0,0,1-2,.92c-1,1.11-2.41.91-3.73,1-7.08.55-14.28.12-21.11,2.85-2.36.94-4.93-.27-7.4-.38a23.46,23.46,0,0,0-10.19,1.74c-.24,2.52,4.36,2.78,2.43,5.78-3.64,1.72-7,4-11,5-6.32.13-9.26,5.15-13,9C230.33,239.8,223.29,247.42,216.88,255.65Z" transform="translate(-1.99 -149.55)"/><path class="cls-2" d="M165.84,404.67a4.15,4.15,0,0,0,3.73,3.91c1.46.29,3.6-.75,4.1,1.58s-1.23,3.52-3,4.53c-.57.33-1.12.68-1.68,1-.62-.22-1.42-.72-1.87-.35-5.53,4.44-11.2,8.78-13.93,15.92,2.31.67,3.48-2.1,5.41-.84-.57,2.76-2.3,4.93-3.77,7.22-4.2.45-6.65,2.82-8.41,6.63-2.56,5.53-5.59,10.85-8.55,16.18a24.26,24.26,0,0,1-8.52,9.44c-2.57,1.55-3.52,3.8-2.51,6.73h-3.73a84.07,84.07,0,0,1,8.48-19.12c5.63-8.15,10.16-16.94,15.1-25.49a23.62,23.62,0,0,0,2-5.56q4.07-6.92,8.14-13.81c2.25-1.64,3.62-4.09,5.55-6C163.37,405.69,164,404,165.84,404.67Z" transform="translate(-1.99 -149.55)"/><path class="cls-17" d="M183.85,283.72a12.29,12.29,0,0,1,1-2.17c.39-.75.4-1.8,1.77-1.94,2.73-.27,7.5-1.27,7.56,1.21.11,4.93,2.91,6.95,7.6,6.81q-1,6-2,12a17.79,17.79,0,0,0-2.53,2.28c-4.54,5.89-7.12,5.9-11.37-.1-.85-1.19-1.67-2.4-2.53-3.62-2.52,1.12-.71,4.85-3.65,5.43.12-3.75,0-7.56,2-11,1.12-1.34-.4-3.94.42-5.32A19.86,19.86,0,0,0,183.85,283.72Z" transform="translate(-1.99 -149.55)"/><path class="cls-18" d="M165.84,404.67c-3.28,2.35-4.53,7-9,8,4.46-11.11,13.83-18,22.06-25.93,1.24-1,2.5-1.26,3.83-.16Z" transform="translate(-1.99 -149.55)"/><path class="cls-19" d="M148.72,426.47c1.2,4.69-2.09,7.88-4.06,11.39-3.84,6.87-6.78,14.4-13.07,19.66,2.11-8,6.79-14.62,11-21.52C144.54,432.77,146.67,429.64,148.72,426.47Z" transform="translate(-1.99 -149.55)"/><path class="cls-20" d="M182.75,386.57l-3.83.16c3.67-5.54,8.86-9,15.11-11,.93,1.31.6,2.07-.77,3C189.66,381.25,186.24,384,182.75,386.57Z" transform="translate(-1.99 -149.55)"/><path class="cls-17" d="M185.89,287.68c-1.41,1.62-2,3.93-4.1,5-1-5,2-8.88,3.93-13C188.31,282.25,186,285,185.89,287.68Z" transform="translate(-1.99 -149.55)"/><path class="cls-21" d="M462.87,504.55l-1.23-3.93c-4.77-10.3-8.73-20.88-10.75-32.1l.09-3c6.83,7.52,9.7,17.17,14,26.06-1.29,8.56,3.82,14.33,8.79,20.16,2.07,3.66,2.75,7.69,3.21,11.78.55,1.3.49,2.4-1.27,2.21a14,14,0,0,1-4.31-1C467,518.71,464.82,511.67,462.87,504.55Z" transform="translate(-1.99 -149.55)"/><path class="cls-22" d="M471.32,527.44a2.42,2.42,0,0,1,.67-2.73c1.09-.8,2.09-1.16,3.33-.1,1.4,1.19,1.28-.39,1.63-1.06" transform="translate(-1.99 -149.55)"/><path class="cls-23" d="M473.74,511.77c-8.09-4.69-10.72-10.72-8.79-20.16C467.65,498.43,472.32,504.39,473.74,511.77Z" transform="translate(-1.99 -149.55)"/><path class="cls-24" d="M309.83,207.71l5.22-1.31c6.9,1.37,13.94,2.07,20.65,4.37.74.59.62,1.23.1,1.88Z" transform="translate(-1.99 -149.55)"/><path class="cls-25" d="M342.18,364.43c-4.24-1-6.22-4.76-9-7.49" transform="translate(-1.99 -149.55)"/><path class="cls-26" d="M156.83,550.66a197.86,197.86,0,0,1,16.93-53.1c12.46-22.52,26.17-44.17,44.38-62.6,3.33-3.37,6.9-6.67,11.56-8.31.81,1.73-.56,2.73-1.3,3.94-23.31,19.73-36.19,45.9-45.85,74.09-1.37,4-1.7,8.52-4.91,11.78-4.77,9.15-6.45,19.13-7.92,29.17" transform="translate(-1.99 -149.55)"/><path class="cls-1" d="M215.47,303.68c-.09-9.69,2.8-17,10-22.14,9.08-6.45,21.46-3.31,27.21,7.08,5.2,9.39,5.16,19.08-.23,28.36-7.81,13.45-25.47,13.35-33.37,0A24,24,0,0,1,215.47,303.68Z" transform="translate(-1.99 -149.55)"/><path class="cls-1" d="M384,301.65c0,12.66-6.7,22-16,23.15-8.41,1.09-15.71-2.94-19.6-11.4-4.42-9.62-4-19.11,2.56-27.69,7.07-9.2,20.25-9,27.48.28C382.27,290.85,384.31,296.37,384,301.65Z" transform="translate(-1.99 -149.55)"/><path class="cls-27" d="M432.78,468.39l-1.8.05-2.06-1.07a21.4,21.4,0,0,1-6.69-3.37c-11.53-12.09-25.64-20.78-39.39-29.94-2.74-1.83-5.7-3.41-7.65-6.22a9,9,0,0,1-1.32-3.53c-.11-2,.7-4.34,2.53-4,5.13.85,9.34-2.49,14.18-2.44A126.74,126.74,0,0,1,424,452.47a47,47,0,0,0,5.58,8.07C431.45,462.79,433.64,465,432.78,468.39Z" transform="translate(-1.99 -149.55)"/><path class="cls-28" d="M318.89,406.58c9.46-.3,18.47-3,27.67-4.81,9.64-1.86,19.34-1.24,27.4,5.75-.6.81-2,1-2.14,2-.54,5.42-4.5,5.53-8.41,5.43a48.76,48.76,0,0,0-20,3.25,9,9,0,0,1-5.88.54c-3-.86-5.56.2-8.26.95-8.57,0-17-1.77-25.52-2.21-2.56-2.09.18-3.79.41-5.68a18.7,18.7,0,0,1,9.46-6C315.34,406.15,317.21,405.7,318.89,406.58Z" transform="translate(-1.99 -149.55)"/><path class="cls-29" d="M329.82,418.55c2.13-1.38,4.23-2.11,6.91-1.18,3.94,1.35,7.36-1,10.92-2.16,5.93-1.9,12.05-1.49,18.14-1.65,2.51-.07,5.28.33,4.07-4.36-1.13-4.4,2.75-.89,4.1-1.68a50.21,50.21,0,0,1,16.62,10.31c-4.34,1.67-8.1,5.16-13.53,3.26-2.11-.75-2.05,1.94-2.25,3.52-5,.82-9.35-1.74-14.05-2.48C353.49,421,346.22,421,338.92,421c-2.48,0-5,.29-7.43-.48A2.59,2.59,0,0,1,329.82,418.55Z" transform="translate(-1.99 -149.55)"/><path class="cls-30" d="M304.85,411.68a4.69,4.69,0,0,1-2,4.86c-6.32,4.8-13.29,5.4-20.64,3.07-2.05-.65-3.92-1.82-6-2.34-.6-.29,0,.32-.46-.14-5.12-5.38-11.49-7.81-18.77-8.15,2-2.67,5-3.36,7.92-4.39a21.18,21.18,0,0,1,12.19.67,89.33,89.33,0,0,0,24.23,5A4.63,4.63,0,0,1,304.85,411.68Z" transform="translate(-1.99 -149.55)"/><path class="cls-31" d="M459.86,509.54c-1.46-2.87-4.12-5.27-3.87-8.9,3.25,1.42,3.06,5.85,6.59,7.64.12-1.51.2-2.62.29-3.73L472,524.71" transform="translate(-1.99 -149.55)"/><path class="cls-32" d="M256.92,409c8.42-2.6,14.25,1.24,19,7.68a.69.69,0,0,1-.12,1c-4.13.43-8.86-1.59-12,2.92-3.12.06-6.29-.35-9.14,1.58-1,.69-2.22,1.5-3.59.26-1.84-1.67.53-2.57.58-3.88-1.29-1.91-2.78-1.08-4.29-.34a40,40,0,0,0-4.43,3.11c-3.62,1.74-6.34,4.75-9.64,6.93-1.6,1.05-3.08,2.71-5.33,1.48l1.72-3.08C237.84,419.32,247.33,414.08,256.92,409Z" transform="translate(-1.99 -149.55)"/><path class="cls-33" d="M262.83,219.64c-.11-2-1.28-2.88-3.21-3-1.21-.1-2.38-.52-2.39-2s1.24-1.94,2.31-2.25c4.28-1.24,8.72-2.57,13.11-1.46a13.33,13.33,0,0,0,8.55-.79c7-2.61,14.4-1.15,21.63-1.47.29,1,.7,1.88-1,2A140.19,140.19,0,0,0,262.83,219.64Z" transform="translate(-1.99 -149.55)"/><path class="cls-34" d="M304.85,411.68c-10.39.59-20.08-2.64-29.84-5.49-3.32-1-6.66-1.85-10.17-1.6,5.15-1.54,10-3.57,15.39.35,2.83,2,7.26-.25,11,.56,2,.44,4.31,2.48,6.52.2,5.34.42,33.66-3.93,38.9-1.94a92.42,92.42,0,0,1-15.95,5.44C314.23,410.58,306.45,410.79,304.85,411.68Z" transform="translate(-1.99 -149.55)"/><path class="cls-35" d="M173.76,497.56c-.51,2.41-.46,5.14-1.62,7.18-7.88,13.77-9.93,29.39-14.37,44.24a8.38,8.38,0,0,1-.94,1.67c0-.72-.05-1.45-.08-2.18C159.2,530.43,163.37,513,173.76,497.56Z" transform="translate(-1.99 -149.55)"/><path class="cls-2" d="M158.6,430.43c-.58.3-1.15.62-1.74.89-1.51.69-2.43,3.73-4.22,2.27s-.38-4,.67-5.84c3.29-5.65,8.42-9.66,13.08-14,2.42-2.26,2.38.42,2.6,2l-9.28,12.9Z" transform="translate(-1.99 -149.55)"/><path class="cls-36" d="M450.89,468.52c4.14,10.52,7.6,21.26,10.75,32.1-2.75-1.67-3.76-4.53-4.74-7.31-1.93-5.45-4-10.7-7.93-15.22C445.87,474.48,448.64,471.4,450.89,468.52Z" transform="translate(-1.99 -149.55)"/><path class="cls-37" d="M432.78,468.39c-1.23-4.15-4.2-7.23-6.55-10.68-1.1-1.62-2.37-3.11-2.21-5.24,8.28,9,16.71,18,21.57,29.5-3.12-.51-3.31-4-5.54-5.44C439.61,472.05,434.8,471.46,432.78,468.39Z" transform="translate(-1.99 -149.55)"/><path class="cls-33" d="M238.81,233.63c1.51-3.93,4.6-6.56,7.72-9.08a3.74,3.74,0,0,1,5.3.09Z" transform="translate(-1.99 -149.55)"/><path class="cls-38" d="M261.64,549.08c1.87-3.85,2.07-7.08-2.92-8.65a2.55,2.55,0,0,1-1.77-3.17c.4-2,1.78-1.51,3.11-1,1.1.39,2.41.86,3.18-.29s-.56-1.74-1-2.58c-2.54-4.81-4.42-10.09-11.51-10.11-2.07,0-2.7-2.37-.28-3.85,1.27-.78,2.83-1.18,3.94-2.13,3.9-3.32,7.58-6.16,5.9-12.85-1.36-5.45,1.53-11.32,2.76-17,.21-.94.92-1.8.43-2.91a2.4,2.4,0,0,0-.72-.46c-1.6-.33-3.19,2.38-4.45.63-1.41-1.95-.21-4.25,1.13-6,2.85-3.67,6.72-6.4,9.32-10.38,2.34-3.56,2.88-7,1-10.79-1.19-2.38-1.27-4.41.89-6.25,2.63-2.24,3.33-5.17,3.22-8.53-.11-3.63-.22-7.26.84-10.88.73-2.51,1.5-4.86,3.88-6.09s2.3-3,2.22-5.07a1.08,1.08,0,0,1,1.32-.06,6.11,6.11,0,0,1,1.26,3.41A22,22,0,0,1,280.18,435a23.23,23.23,0,0,0-3.1,11.45c-.39,10.39-1.2,20.61-8.19,29.23-2.47,3.05-1.83,6.24,1.38,8.72a91.47,91.47,0,0,0,7.55,5.74c2.12,1.3,4.15,2.26,6.25,0a2.41,2.41,0,0,1,2.72-.82c4.52,2,6.67-.79,8.9-4s5.74-5,9.11-6.84a4.86,4.86,0,0,1,6.67,1.4c1.65,2.08,3.34,2.62,5.33.39a4,4,0,0,1,4.11-1.16c1.8.43,3.15-.31,4.61-1.29,4.63-3.15,5.9-2.81,8.48,2,.38.69.54,1.57,1.87,1.95-.48-4.46-.28-8.68,3-12.13,2.93-3.11,4.39-3.34,7.17,0,1.62,1.95,2.85,2,5.06,1,4.25-1.93,9.53-1.47,12.85-5.65a1.74,1.74,0,0,1,2.32-.18c5.47,4.62,11.6,3,17.71,2.1,3.39-.49,6.56,1,9.79,1.7s5.58.18,7.93-2.48c4.1-4.66,7.39-4.56,10.84.31,2.41,3.39,6.62,2.91,9.34,5.34-2.79,3.62-7.67,3.4-11,6-5.35-.91-8.95,1-10.72,6.32-1.42,4.29-3.72,6.29-9,5-4.55-1.14-9.62-.52-14.43-.19-4.37.29-9.21,6.15-9.81,11.33-.25,2.14.07,4.67-2.56,5.38-2.38.63-4-1.4-5.58-2.74-1.89-1.62-.09-3.34.55-5,.42-1.06.93-2.09,1.45-3.24-5.46.29-7.68,3.67-6.06,8.93,1,3.19,2.25,6.27-.89,9.19s-6.1,4.08-10.08,1.09c-2-1.52-4.19-3-6.52-4.89.68,7.6,2,11.31-11.52,9-.16,2.93,2.51,3.06,4,4.27s3.12,2.54,1.38,4.51-2.77.37-3.88-1c-2.92-3.74-7.09-3.23-11-2.78-1.87.21-3.76,1.82-3,3.83,1.27,3.23,1,6.92,3.08,9.84.46.64,1.37,1.15.81,2.12a2.27,2.27,0,0,1-2.64.94c-3.34-.77-5.79-2.6-6.21-6.22-.12-1,.93-2.68-1-2.48a9.3,9.3,0,0,0-5.66,2.89c-.88.92-.11,1.83.57,2.6a13.82,13.82,0,0,0,7,4.55c1.7.45,3.58,1.19,3.69,3.52a3.91,3.91,0,0,1-2.6,3.9c-2,.9-3.5-.21-4.8-1.65-2-2.21-3.74-4.07-7.08-1.52-2,1.55-2.87-1.16-4.08-2.41s-2.05-4-4.68-2.19c-2.21,1.48-2.75,3.17-1.43,5.88" transform="translate(-1.99 -149.55)"/><path class="cls-38" d="M294.4,549.77c1.63-2.47,3.67-2.79,5.67-.36" transform="translate(-1.99 -149.55)"/><path class="cls-38" d="M274.82,552.4" transform="translate(-1.99 -149.55)"/><path class="cls-39" d="M281.69,420.78l-.44-.06-.44,0-5-3.07c0-.34.08-.67.11-1,1,0,2.2-.27,2.95.17,8.07,4.76,16,2.31,23.93-.29,9.1-.71,18,1.68,27,2l1.08,1a1.61,1.61,0,0,1,.33,1.32,6.23,6.23,0,0,1-2,3,4.83,4.83,0,0,1-1.31.64,80,80,0,0,0-8.26,1.66c-5.23,1.4-9.24,4-11.43,9.33-1.73,4.16-2.71,4.19-5.9.92a15.78,15.78,0,0,0-6.51-4.36,6.66,6.66,0,0,1-3.76-2.3C289.45,425.81,285.51,423.38,281.69,420.78Z" transform="translate(-1.99 -149.55)"/><path class="cls-40" d="M397.23,497.32c3.07.62,4.12-1.19,3.28-4-.89-2.93-.49-4.57,2.82-4.7,3.5-.13,6.31,1.05,7.13,4.76.37,1.64-1.38,2.07-2.52,2.65-4.06,2.08-5.9,4.9-4.38,9.72.69,2.19,1.25,5.18-.83,7.08s-4.47.08-6.53-.66c-2.62-1-4.95-2.22-.94-4.87,3.19-2.12.73-3.91-.83-5.58-1.06-1.13-2.14-2.27-1-3.9C394.29,496.5,395.59,496.57,397.23,497.32Z" transform="translate(-1.99 -149.55)"/><path class="cls-40" d="M329.17,530.86c2.42,3.18,5.06.55,7.85,0a3.08,3.08,0,0,1,3.59,3.26c0,2.11-1.64,2.9-3.52,2.05-2.67-1.21-4.39,0-6.2,1.72-1.19,1.09-2.45.67-3.57-.34a3.62,3.62,0,0,1-1.3-4A3.88,3.88,0,0,1,329.17,530.86Z" transform="translate(-1.99 -149.55)"/><path class="cls-41" d="M350.4,530.69c-1.81-.41-4.18-.18-4.33-2.89a1.67,1.67,0,0,1,2.33-1.73c2.16.83,5.52.56,5.77,3.53C354.31,531.33,351.75,530.29,350.4,530.69Z" transform="translate(-1.99 -149.55)"/><path class="cls-42" d="M251.22,552.36c0-1.18.69-2.87,2.37-2.5" transform="translate(-1.99 -149.55)"/><path class="cls-41" d="M376.05,542.6c-1.87,0-3.14-.17-3.13-2,0-2,1.22-2.91,3.13-2.93,1.49,0,3.36,0,3.32,1.93S377.56,542.47,376.05,542.6Z" transform="translate(-1.99 -149.55)"/><path class="cls-40" d="M380.5,495.24c.05,1.68-1.05,2.26-2.5,2.33a2.62,2.62,0,0,1-3.08-2.47c-.16-1.39.11-2.92,1.72-3.06C378.71,491.86,379.85,493.35,380.5,495.24Z" transform="translate(-1.99 -149.55)"/><path class="cls-40" d="M339.2,525.57c-1.61-.53-3-1.34-2.94-3,.1-1.94,1.84-1.94,3.34-1.93,1.69,0,2.32,1,2.12,2.53A2.55,2.55,0,0,1,339.2,525.57Z" transform="translate(-1.99 -149.55)"/><path class="cls-41" d="M363.76,536.5c0,1.09-.33,2-1.61,1.93-1.56-.11-2.21-1.19-2.24-2.66,0-1.07.32-2,1.59-1.92C363.06,534,363.66,535.05,363.76,536.5Z" transform="translate(-1.99 -149.55)"/><path class="cls-41" d="M378.79,507.28a2.71,2.71,0,0,1-1.6-2.75,1.81,1.81,0,0,1,2-1.7c1.64.08,1.64,1.35,1.46,2.53A2,2,0,0,1,378.79,507.28Z" transform="translate(-1.99 -149.55)"/><path class="cls-43" d="M421.86,471.68c-4.56-.4-8.68-1.14-11.16-6-2.07-4-6-2.13-7.29.19-3.22,5.9-7.68,4.6-12.33,3.29-3.89-1.1-7.67-2.28-11.37.47-1.19.87-2.17.25-3-.68s-2.18-1.9-3-1.05c-3.23,3.22-5,2.1-6.68-1.52-.91-1.94-2.36-1.19-3.54.12-2.38,2.63-4.73,5.39-8.91,3.64a.55.55,0,0,0-.48.07c-4.24,3.6-7.79,4.34-10.38-1.92-.5-1.21-2.07.07-2.87.89-2.89,3-5,6.33-3.66,10.72.49,1.67,1.3,3.52-.87,4.23-1.89.61-2.36-1.44-3-2.73-2.87-6.17-2.68-5.86-8.1-1.86-3.14,2.31-8.46.15-11.07,4.45-1.21-1.12-2.71-2-3.58-3.39-1.59-2.46-3.44-2.35-5.51-1-3.77,2.38-7.79,4.45-10,8.66a9.25,9.25,0,0,1-2.58,2.95c-2.77,2-6.44-3.1-9.79,1.8-1.37,2-6.08-2.56-9.17-4.34a13.87,13.87,0,0,1-1.83-1.7c-7.29-6.17-7.43-7.26-1.73-14.93,5.06-6.8,5.33-14.91,5.8-22.79.36-5.92.84-11.55,4.42-16.54,1.91-2.65,1.26-6.14,2.67-9,5.59.47,7.83,4.5,4.75,9.13-1.76,2.64-3.24,5-1.64,8.22a3.27,3.27,0,0,1-.34,3.36c-3.11,4.06-1.4,8.23-.57,12.44.42,2.09,1.28,3,3.4,2.13,6.18-2.63,12.43-3.69,18.91-1.05a1.25,1.25,0,0,0,1,0c5.6-3.45,12.48-3.42,18.12-6.45,7.47-4,11.63-3.65,17,2.71,1.22,1.44,2.23,4.31,4.34,3.34,2.37-1.09,2.46-4.13,2.29-6.66-.13-1.84-1.33-3.4-1.81-5.17-.41-1.48-.64-3,.63-4.2,1.45-1.32,3.08-.9,4.64-.09.6.3,1.12.73,1.7,1.06,4.39,2.49,6.43,2,7.79-2.87,1.21-4.35,3-5,6.57-2.52s7.5-.12,11.22.57c2,.53,3.45,1.93,5.05,3.09a9.26,9.26,0,0,0,7.4,2c3-.53,5.58.51,6.72,3.69.48,1.32,1.11,2.5,2.6,2.7,5.19.68,8.34,4.42,11.84,7.68,2.65,2.47,5.12,5.2,8.62,6.57l5.91,3.91C425.45,467,423.4,468.9,421.86,471.68Z" transform="translate(-1.99 -149.55)"/><path class="cls-1" d="M172.76,542.5c.06-9,3.72-17.27,4.88-26,8.28-27.09,18.33-53.3,37.6-74.88A102.08,102.08,0,0,1,228,429.73c4.05-1.23,6.91-4.25,10.08-6.78a11.46,11.46,0,0,1,4.73-2.51,1.66,1.66,0,0,1,.1,2.27l-1.11,1.92c-3.18,2.05-6.22,4-4.25,8.75.77,1.85-.75,3.47-1.85,4.93-2.41,3.17-2.6,6.09.95,8.53,3.21,2.2,2.82,4.57.44,7a37.42,37.42,0,0,1-5.16,4.68c-1.81,1.27-3.14,2.93-2.95,4.9.57,6.08-2.41,11.31-3.57,17a68.06,68.06,0,0,0-1.67,9.77c-.36,5.95-4.09,10.36-7.67,14.77s-7.36,8.69-5.63,15.13c.53,1.94-1.29,2.69-2.66,3-4.18,1-5.79,3.9-6.59,7.79a59.2,59.2,0,0,1-2.43,7.55c-.62,1.75-1.38,3.41.37,5,.8.74,1.95,1.58,1.13,2.95s-2.22,1.42-3.55,1-2.72-1.08-3.38.68.93,2.37,2.13,2.78" transform="translate(-1.99 -149.55)"/><path class="cls-44" d="M242.89,422.71c0-.75-.07-1.51-.1-2.26,1.37-2.54,3.94-3.41,6.34-4.4s2.88.46,2.54,2.5C248.05,418.46,246.21,422.16,242.89,422.71Z" transform="translate(-1.99 -149.55)"/><path class="cls-2" d="M285.83,353.64l7-5c7.85-4.05,16.28-4.21,24.64-2.81,6.58,1.1,11.72,5.13,15.64,10.57,3.23,8.53,1.23,14.1-6.61,18.36-1.46.8-2.95,1.55-4.4,2.38-6.45,3.71-8.26,3.72-13.91-.84a9.31,9.31,0,0,0-8.41-1.78A15.72,15.72,0,0,1,287,371.78C280,366.74,279.57,359.89,285.83,353.64Z" transform="translate(-1.99 -149.55)"/><path class="cls-1" d="M238.93,327c-6.73.07-12.18-5.56-12.4-12.82s5.35-13.36,12.36-13.32c6.73,0,12.22,5.9,12.22,13.05S245.59,327,238.93,327Z" transform="translate(-1.99 -149.55)"/><path class="cls-1" d="M374.16,311.94c.13,7.08-4.63,12.64-11.07,12.93-7,.31-13.46-6.48-13.58-14.33-.11-7,5.35-13.11,11.66-13C367.89,297.57,374,304.38,374.16,311.94Z" transform="translate(-1.99 -149.55)"/><path class="cls-45" d="M423,463.46c-4,.28-6.22-2.62-8.77-4.93-3.85-3.49-6.7-8.5-13.06-8.1-1.81.11-2.31-1.61-2.34-3.25-.06-2.64-2.15-4-4-3.32-6.4,2.3-9.8-2.47-14.07-5.28-2.44-1.62-4.71-3.47-7.51-4.56-1.83-.72-3.57-1.91-2.77-4.46,1.5-1.44,3.09-2.66,5.38-2,10.95,7.67,21.86,15.4,32.86,23A70.15,70.15,0,0,1,423,463.46Z" transform="translate(-1.99 -149.55)"/><path class="cls-46" d="M375.89,427.54l-5.06,2.16a3.51,3.51,0,0,1-3.25-.75c-7.94-5.17-17-6.22-26.08-6.95-2.23.08-4.45.06-6.68,0-1.47-.05-2.92-.17-4-1.43,0-.33,0-.65,0-1,14,.06,28.09-.79,41.61,4.08.77.28,1.52.63,2.29.94C375.16,425.59,375.53,426.56,375.89,427.54Z" transform="translate(-1.99 -149.55)"/><path class="cls-47" d="M341.83,420.65c10.35.83,20.54,2.18,29,9.05.2,2.74,2.4,3.33,4.42,3.88a7.55,7.55,0,0,1,5.55,5c-5.37.84-10.87,2.58-15.59-3.11a39.3,39.3,0,0,1-.58,4.27c-1.77,6.45-5.13,7.62-10.56,3.59-1.38-1-2.82-2.46-4.38-1.25-1.9,1.49-.56,3.47.38,4.92a8.49,8.49,0,0,1,.5,9c-.71,1.44-.4,3.73-2.26,4.2-2.13.55-3.05-1.67-4.26-2.91-1.39-1.41-2.37-3.22-3.78-4.6-3.27-3.25-8.36-3.91-11.7-1-2.46,2.15-5.3,2.19-7.94,3.23-7.84,3.12-15.49,4.55-24,3-2.85-.52-6.28,1.77-9.36,3-2.32.93-3.63.61-3.44-2.11a16.84,16.84,0,0,0-1.41-6.78c-.51-1.47-1-3-.1-4.32,2.06-3.1,3.89-6,.9-9.71-.83-1.05.72-2.73,1.65-3.9,4.43-5.6,4.1-7.2-2.13-10.39-1.13-.69-.95-1.87-1.09-2.93a5.83,5.83,0,0,1,5,1.9c4.9,6.88,13.84,8.68,19.31,16,2.84-12.7,12.58-14.33,22.88-15.06,1.46,1.35,0,4.16,3.13,5.24,0-2.66-1.89-3.78-3.16-5.21l2.05-3.09,3.94.08C339,424.8,339,424.8,341.83,420.65Z" transform="translate(-1.99 -149.55)"/><path class="cls-48" d="M363.82,452c0,1.8-.37,3.58-2.58,3.46-2.7-.14-2.49-2.8-3.1-4.53s.75-2.25,2.26-2.26C362.63,448.64,363.8,449.73,363.82,452Z" transform="translate(-1.99 -149.55)"/><path class="cls-49" d="M341.83,420.65c-.41,1.8,1.3,4.63-2.19,5s-4.19-2.37-4.84-5Z" transform="translate(-1.99 -149.55)"/><path class="cls-50" d="M328.81,423.65c1,0,2.09-.19,2.7.72,1,1.55,2.91,2.89,2,5.15a1.91,1.91,0,0,1-2.9.81c-2-1.13-3.06-2.85-2.09-5.28a7.39,7.39,0,0,0,.28-1.43Z" transform="translate(-1.99 -149.55)"/><polygon class="cls-51" points="149.66 260.07 144.15 265.34 281.57 333.58 311 333.54 451.86 256.47 447.28 250.75 311.01 324.79 282.17 325.16 149.66 260.07"/><path class="cls-25" d="M145.7,487.46l.44-72.57,137.42,68.24,29.43,0L453.85,406l1.08,61.3s-6.45,23.3-22.23,32.24,7.17,8.11,7.17,8.11l13.88,65.67-.53,20L312.7,676.53H286.93l-140.76-85" transform="translate(-1.99 -149.55)"/><path class="cls-52" d="M312.7,676.53c-7.33.17-18.44-.17-25.77,0-2.55-6.5-5-6.31-4.93-13.83.45-57.35,1.44-122.22,1.56-179.57,13-2.63,14.59-2.89,29.43,0,.15,57.78,1.9,119.14,2.14,176.92C315.15,665.69,315.26,670,312.7,676.53Z" transform="translate(-1.99 -149.55)"/><path class="cls-53" d="M459.28,438.82c-3.59,7.87-2.4,17.14-8.76,24.2.92-9.57-3.81-19.72,3.64-28.62Z" transform="translate(-1.99 -149.55)"/><path class="cls-54" d="M436.18,413.42" transform="translate(-1.99 -149.55)"/><path class="cls-55" d="M167.57,502.53c1.8,8.75,8.45,10.47,15.79,14,11.28,5.39,20.06,43.92,14.61,53.82-11.44,20.75-21.47,23.75-50.48,15.12C139,579.08,130,573.21,122,566.22c-24.64-21.53-27.38-36.07-14.59-65.87,4.41-10.28,7.08-21.3,10.55-32,4-1.7,7,.41,10,2.52,3.92,3.38,7.56,7.16,12.34,9.44a21,21,0,0,1,6,4.85l.78-.06c4.83,3.18,9.23,6.9,13.7,10.49C164,496.93,167,498.51,167.57,502.53Z" transform="translate(-1.99 -149.55)"/><path class="cls-55" d="M146.28,485.17l-6.53.6c-4.55-4.71-7.81-10.4-11.77-15.57-5.09-3.84-3.51-10.42-6.25-15.22l4.41-8.47c16.14.6,15.18,15.34,20.54,24.84Q146.49,478.27,146.28,485.17Z" transform="translate(-1.99 -149.55)"/><path class="cls-55" d="M146.68,471.35c-8.64-6.8-10.69-19-20.54-24.84l11.92-18c11.1,6.16,3.07,18.62,8.75,26.56Q146.75,463.23,146.68,471.35Z" transform="translate(-1.99 -149.55)"/><path class="cls-55" d="M146.81,455.08c-7.24-7.43-5.12-17.94-8.74-26.56l5.27-4.29C150.52,433.84,146,444.75,146.81,455.08Z" transform="translate(-1.99 -149.55)"/><path class="cls-55" d="M121.73,455l8.13,11.82c2.68,6.26-.6,6.69-5.45,5.57l-6.45-4Q119.84,461.67,121.73,455Z" transform="translate(-1.99 -149.55)"/><path class="cls-56" d="M167.57,502.53l-6-4.08c-5.2-3.16-4.66-7.56-2.63-12.27C164.87,490,176.47,490.82,167.57,502.53Z" transform="translate(-1.99 -149.55)"/><path class="cls-55" d="M158.89,486.18q1.32,6.13,2.63,12.27c-8.47-.49-11.32-7.07-14.46-13.34Z" transform="translate(-1.99 -149.55)"/><path class="cls-55" d="M124.41,472.37c1.81-1.85,3.63-3.7,5.44-5.56,4.7,5.58,9.33,11.2,9.89,19C133.61,482.48,127.92,478.67,124.41,472.37Z" transform="translate(-1.99 -149.55)"/><polygon class="cls-57" points="141.35 274.68 143.9 271.38 144.7 282.48 141.35 274.68"/><path class="cls-2" d="M387.57,436.21" transform="translate(-1.99 -149.55)"/><path class="cls-13" d="M377.73,375.14c11,6,20.63,14.65,33.1,18-.77-5.38-5.07-8.2-8.62-11.4-2.27-2-4.37-3.92-5.29-6.93" transform="translate(-1.99 -149.55)"/><path class="cls-2" d="M427.63,403.76c-.68-.73-1.53-1.29-2.21-2-1.62-1.76-1.36-2.93,1.1-3.36,2.66-.46,4.77-1.53,5.1-4.59a6.21,6.21,0,0,0-2-3.86c-4.82-5.13-8.64-11.1-13.76-15.95-3-4.43-8.14-6.75-11.17-11.17-2.2-1.44-5.29-1.63-6.43-4.57" transform="translate(-1.99 -149.55)"/><path class="cls-2" d="M430.83,393.61c3.1,2.57,4,7.27,8.4,8.6-3.67-11.4-12.54-19-20.2-27.41-1.16-1.08-2.4-1.43-3.8-.42Z" transform="translate(-1.99 -149.55)"/><path class="cls-2" d="M415.23,374.38l3.8.42a27.25,27.25,0,0,0-14.3-12c-1,1.24-.74,2,.56,3.06C408.71,368.58,411.93,371.52,415.23,374.38Z" transform="translate(-1.99 -149.55)"/><path class="cls-1" d="M379,427" transform="translate(-1.99 -149.55)"/><path class="cls-55" d="M474.14,460.49c-3.84-2-7-.07-10.1,1.82" transform="translate(-1.99 -149.55)"/><path class="cls-55" d="M462.38,458.11" transform="translate(-1.99 -149.55)"/><path class="cls-13" d="M411.57,365a85.18,85.18,0,0,1,37.7,35.29l-22,12.16Z" transform="translate(-1.99 -149.55)"/><path class="cls-57" d="M453.82,408a83.2,83.2,0,0,1,11.54,20.68c2.89,7.34,10.94,23.16,10.74,32.68-.58,27.88-21.94-27-21.94-27Z" transform="translate(-1.99 -149.55)"/><polyline class="cls-15" points="156.26 263.31 157.72 264.03 167.81 268.98 177.94 257.67 165.64 253.21 155.56 262.91"/><ellipse class="cls-58" cx="303.2" cy="214.89" rx="41.91" ry="38.79"/><path class="cls-25" d="M332.61,356.82c-9.72-13.78-25.2-16.81-39.38-7.71a77.3,77.3,0,0,1-7.54,5c-3,1.44-4.35,4.22-5.72,7-2.31,3.94-.47,7.6.79,11.29,1.81,5.14,4.18,13.08,5.69,13.72.77.33,6.6,13.91,6.16,15.27-1,3.14-11.08-3.62-19.75-12.31-10.36-8.55-13.48-31-6.76-43.73,1.78,3.18,3.68,2.52,6.29.71,5.61-3.9,9.83-9.28,15.1-13.51,6.82-3.82,13.86-6.88,22.06-6.38-3.1-2.7-7.49.06-10.41-2.79,10.48-4.16,19.79,0,28.9,4.4,7.21,3.46,13,8.55,15.37,16.67,2.6,4.72,2.57,9.84,2.2,15-.18,2.48-.52,2.66-3.43,3l-9.57-5.61" transform="translate(-1.99 -149.55)"/><path class="cls-58" d="M318.94,404c-1.68.55-6.63,1.67-14.77,1.11-1.8-.12-2.34.4-7.58-1.11a25,25,0,0,0-3.39-1c-1.48-.2-2.19-.6-2.09-.81s-1.74-5.11-1.69-8.33-7.27-16.24-8.89-22.1c1.44-1.2,1.83-.54,3.52.08a4.34,4.34,0,0,1,2.08,2.38c.72,6,4.05,10.29,9.13,13.29,2.95,1.74,4.92,3.86,3.8,7.58-.39,1.61-1,2-.19,1,3-5,4.82-5.71,9.62-3.06,2.35,1.3,4.2,1.38,6.46,0,4.66-2.9,10.09-4.22,14.66-7.46,3.21-2.29,5.32-.9,5.62,2.94C332.94,397.59,325.78,399.12,318.94,404Z" transform="translate(-1.99 -149.55)"/><path class="cls-52" d="M328.53,385.39c-4.12,5.28-7.81,4.11-15.5,7.12a14.28,14.28,0,0,1-6.49.4c-12.21-3.48-10.85-3.63-14-5.42-5.24-3-9.48-7.1-9.25-13.94,5.12,1.82,10,4.17,14,7.87,3.8,3.53,7.54,4.5,12.11,1.72a8.75,8.75,0,0,1,8.09-.84c3.48,1.32,5.05-1.75,7.28-3.44a7.88,7.88,0,0,0,3-3.17c.71-1.33,1.53-2.2,1.44-3.64-.37-5.75,2.49-10.81,1.56-15.71,1.31,1.25,5.57,7.5,4.83,13.79a19.22,19.22,0,0,1-1.05,5.54A41.81,41.81,0,0,1,328.53,385.39Z" transform="translate(-1.99 -149.55)"/><path class="cls-59" d="M287.36,333.57c-3.29,2.85-5.61,4.06-7.86,6.19-3,2.82-5.07,3.76-8.1,8.33-1.49,2.25-6.12,2.6-7.33,2.38a5.86,5.86,0,0,1,.69-2.44c.37-.88,1.06-1.74,1.34-2.65a24.82,24.82,0,0,1,10-11c3-1,4.95-3.89,8-4.79,1.2-.36,2.51-1.16,3.71.06C289.22,331.14,288.34,332.37,287.36,333.57Z" transform="translate(-1.99 -149.55)"/><path class="cls-60" d="M287.36,333.57c-.29-1.18,1.25-2.65-.39-3.55-.72-.4-1.76-.53-2-.71a5.3,5.3,0,0,1,2.24-.82c4.56-1.08,7.47-3.47,11.92-5.08,5-2,7.31-1.75,10.64-1.65,1.25,0,7.19,1,9.49,2.22.44.24.87.48.08.84s-3.1,1.42-5.12,2.22c-1.52.6-1.51.07-2-.06C304,324.76,294.43,331.18,287.36,333.57Z" transform="translate(-1.99 -149.55)"/><path class="cls-61" d="M280.58,359.06c-1.08,5.55,6,8.77,8.23,13.38l-8.07-.05C279,368,275.07,363.53,280.58,359.06Z" transform="translate(-1.99 -149.55)"/><path class="cls-62" d="M333.76,366.27c0,2,.28,4-.42,5.89-3.25,8.74-13.55,15.13-25.76,15.13-14.81,0-26.82-9.41-26.82-21s12-21,26.82-21c11.57,0,21.42,5.73,25.19,13.77C333.83,361.28,333.76,363.72,333.76,366.27Z" transform="translate(-1.99 -149.55)"/><path class="cls-61" d="M332.81,357.31l-1.06.06c-1.88-1.62-3.69-3.33-5.65-4.84-9.55-7.37-20.24-5.73-31-3.82l-3.39.63C305.59,337.69,327.87,345.18,332.81,357.31Z" transform="translate(-1.99 -149.55)"/><ellipse class="cls-2" cx="304.4" cy="212.79" rx="26.43" ry="17.09"/><path class="cls-63" d="M240.89,322.8c-6.73.07-12.18-5.57-12.4-12.83s5.35-13.36,12.37-13.32c6.72,0,12.21,5.9,12.21,13.05S247.55,322.72,240.89,322.8Z" transform="translate(-1.99 -149.55)"/><path class="cls-64" d="M374.16,310.48c.13,7.08-4.63,12.64-11.07,12.92-7,.31-13.46-6.47-13.58-14.33-.11-7,5.35-13.1,11.66-13C367.89,296.1,374,302.91,374.16,310.48Z" transform="translate(-1.99 -149.55)"/><path class="cls-25" d="M347,362.34s1.95-6.71-3.63-17.86-.14,18.33-.14,18.33Z" transform="translate(-1.99 -149.55)"/><path class="cls-2" d="M357.31,223.49c0,10.21-25.4,18.49-56.74,18.49s-82.81,23.88-82.81,13.67c0-6.71,32.22-45,48.64-48.19,8.56-1.69,23.43-2.46,34.17-2.46a150.62,150.62,0,0,1,32.14,4.53c12.38,3.31,22.25,8.6,22.92,9.47A7.35,7.35,0,0,1,357.31,223.49Z" transform="translate(-1.99 -149.55)"/><path class="cls-51" d="M242.61,512v15c0,1.06,0,1.06-.71.62l-3-1.93c-.5-.32-.53-.39-.63-1.2s-.2-1.9-.32-2.85c-.09-.77-.13-.82-.48-.58a7.1,7.1,0,0,1-1.81.94c-2.09.69-4.31.17-6.66-1.64a16.27,16.27,0,0,1-3.46-3.83,13.48,13.48,0,0,1-1.75-3.9,22.75,22.75,0,0,1-.71-9.89,5.86,5.86,0,0,1,2.53-4.29,6.2,6.2,0,0,1,5.29-.49,47.37,47.37,0,0,1,5.63,2.18,2.12,2.12,0,0,0,.4.14c.15,0,.24-.06.24-.3a28,28,0,0,0-.47-6.74,8.11,8.11,0,0,0-2.61-4.74,10.1,10.1,0,0,0-2.75-1.58,12.45,12.45,0,0,0-6-.76c-.55.05-.55.05-.71-.95s-.33-2.14-.49-3.2c-.1-.67-.09-.71.26-.84a9.57,9.57,0,0,1,3.22-.41,15.33,15.33,0,0,1,6.07,1.33,12.68,12.68,0,0,1,4,2.73,17.86,17.86,0,0,1,4.8,10.64,23.26,23.26,0,0,1,.17,3Z" transform="translate(-1.99 -149.55)"/><path class="cls-51" d="M201.09,489.48V501c0,.15,0,.3,0,.45,0,.35,0,.4-.23.29l-2.18-1.38c-.22-.14-.27-.26-.31-.7-.08-.77-.14-1.53-.21-2.3a2.66,2.66,0,0,0,0-.28c0-.31-.1-.39-.22-.28s-.43.42-.65.6a3.48,3.48,0,0,1-3.44.62,4.76,4.76,0,0,1-1.59-1.1,10,10,0,0,1-1.72-2,12.78,12.78,0,0,1-1.74-4.91,24.34,24.34,0,0,1-.31-5.05,7.82,7.82,0,0,1,1.44-4.74,3.51,3.51,0,0,1,3.39-1.26,14.54,14.54,0,0,1,2.8.88l1.3.53c.22.09.28,0,.29-.37a30.73,30.73,0,0,0-.22-4.56,11.65,11.65,0,0,0-.46-2.08,4.79,4.79,0,0,0-1.54-2.35,6,6,0,0,0-2.65-1.16A6.82,6.82,0,0,0,190,470l-.12,0c-.19,0-.23,0-.29-.48-.12-.95-.24-1.91-.35-2.86-.06-.48,0-.58.17-.69a4.3,4.3,0,0,1,1.41-.45,7.77,7.77,0,0,1,3.14.1,7.05,7.05,0,0,1,3.47,1.85,10.81,10.81,0,0,1,2.72,4.58,19.83,19.83,0,0,1,.87,4.74c0,.62,0,1.22,0,1.81Q201.09,484.06,201.09,489.48Z" transform="translate(-1.99 -149.55)"/><path class="cls-51" d="M220.74,477.6c-.2,1.69-.41,3.33-.65,5-.68,4.72-1.42,9.33-2.3,13.76-.71,3.58-1.48,7-2.43,10.26-.29,1-.62,1.95-.93,2.91-.17.5-.42.59-.81.34q-2.16-1.41-4.26-2.71c-.21-.13-.27-.35-.32-.66-.36-2.32-.73-4.64-1.1-6.94q-1.09-6.91-2.16-13.71-1.2-7.59-2.38-15a1.85,1.85,0,0,1,0-.23c0-.24,0-.38.14-.31l.15.06,3.23,1.36.23.1c.19.08.32.3.38.66.1.58.2,1.16.29,1.74,1.15,7,2.33,14,3.37,21.16.27,1.79.53,3.59.75,5.39a1.29,1.29,0,0,0,.14.6c.09,0,.1-.14.12-.25,1.13-5,2.15-10.12,3-15.56.38-2.51.69-5.09.89-7.75.05-.57.07-1.16.1-1.73,0-.29.09-.42.27-.34l4.26,1.81S220.68,477.53,220.74,477.6Z" transform="translate(-1.99 -149.55)"/><path class="cls-51" d="M180.36,495.73a2.06,2.06,0,0,0,.79-.35,6.23,6.23,0,0,0,1.65-3.66,28.85,28.85,0,0,0,.42-5.34V451.56c0-.2.05-.28.15-.25l.16.06,2.41.83c.28.1.3.15.3.71V488a33.65,33.65,0,0,1-.47,6c-.41,2.24-1,4.05-2,5.07a2.65,2.65,0,0,1-1.9.86c-.12,0-.22-.07-.31-.36-.39-1.26-.78-2.51-1.16-3.75A.88.88,0,0,1,180.36,495.73Z" transform="translate(-1.99 -149.55)"/><path class="cls-25" d="M237.13,510.45v4.14c0,.42-.08.7-.3.84a5.41,5.41,0,0,1-4.2,1,4.88,4.88,0,0,1-2.45-1.46,10.59,10.59,0,0,1-2.61-6.8,11.46,11.46,0,0,1,.19-2.61c.34-1.71,1.15-2.45,2.29-2.53a6.74,6.74,0,0,1,3,.69c1.11.48,2.22,1,3.36,1.58l.22.12c.42.23.45.29.45.9v4.13Z" transform="translate(-1.99 -149.55)"/><path class="cls-25" d="M197.67,488.46c0,1,0,2.08,0,3.12a1.16,1.16,0,0,1-.27.92,3.61,3.61,0,0,1-2.26,1.15,2.23,2.23,0,0,1-1.81-.84,8.17,8.17,0,0,1-1.77-5.06,11.34,11.34,0,0,1,.09-2.29c.18-1.3.63-2,1.3-2.25a3,3,0,0,1,2.12.21c.66.28,1.32.54,2,.9l.29.15c.29.16.31.21.31.76C197.67,486.31,197.67,487.38,197.67,488.46Z" transform="translate(-1.99 -149.55)"/><path class="cls-1" d="M350.45,554.07v4.4c.14,1.57.15,3.23.17,4.86a61.75,61.75,0,0,0,1.7,13,53.82,53.82,0,0,0,4.87,13.57,31.21,31.21,0,0,0,8.95,10.85,20.74,20.74,0,0,0,13.32,4.22,23.83,23.83,0,0,0,6.07-1,24.83,24.83,0,0,0,6.44-3,12.28,12.28,0,0,1,2-1.23l2.38-1.64c1-.85,2-1.56,3-2.29A44.49,44.49,0,0,0,406,589a85.6,85.6,0,0,0,9.38-13.66,107.16,107.16,0,0,0,4.9-9.83,128.07,128.07,0,0,0,6.75-19.82c.88-3.54,1.64-7.09,2.22-10.67.54-3.33,1-6.63,1.21-9.91.12-1.49.1-2.93.16-4.4.05-1.06,0-2.08.08-3.15v-3.51c-.06-1.5-.09-3-.11-4.55a44.78,44.78,0,0,0-.3-4.58,75.22,75.22,0,0,0-1.36-8.34,66.43,66.43,0,0,0-2.08-7.34,50,50,0,0,0-3-7,34.82,34.82,0,0,0-4.9-7.09,24.7,24.7,0,0,0-8.15-6.1,18.47,18.47,0,0,0-5.89-1.6,15.93,15.93,0,0,0-4.57,0c-1.14.22-2.3.53-3.46.86-.17.05-.36.2-.53.09l-2.38.76A8,8,0,0,1,392,470a28.18,28.18,0,0,0-8.29,4.79,69.14,69.14,0,0,0-14.89,16.91c-1.76,2.7-3.39,5.61-5,8.65a121,121,0,0,0-8.25,20.54q-1.71,5.64-2.89,11.46a115.11,115.11,0,0,0-2,13.32c-.2,2.5-.25,5-.25,7.4A2.71,2.71,0,0,1,350.45,554.07Z" transform="translate(-1.99 -149.55)"/><path class="cls-25" d="M395,534.52A112.68,112.68,0,0,0,402.31,518a32.31,32.31,0,0,0,1.18-4.87,12.81,12.81,0,0,0-.82-7.73,19.46,19.46,0,0,0-4.46-5.59,74.56,74.56,0,0,1-6-5.64,17.43,17.43,0,0,1-3.54-6,25.09,25.09,0,0,1-.8-11.19,2.12,2.12,0,0,0,.05-.83c-.22.15-.28.49-.38.76a22.61,22.61,0,0,0-.87,12.8,22.94,22.94,0,0,0,4.22,9,30.2,30.2,0,0,0,4.27,4.56,16.69,16.69,0,0,1,3.06,3.59c2.49,3.92,2.74,8.48.83,15-.86,2.94-1.95,5.76-2.92,8.68A34,34,0,0,0,395,534.52Z" transform="translate(-1.99 -149.55)"/><path class="cls-25" d="M372.66,582.62c-1.44,1.79-1.63,3.53-.5,4.28a5.34,5.34,0,0,0,3.62.55,34.23,34.23,0,0,0,10-2.89,93.74,93.74,0,0,0,16.38-9.26,127.57,127.57,0,0,0,13.51-10.8,12.36,12.36,0,0,0,2-2.35c.91-1.4,1-2.64.25-3.39a4.34,4.34,0,0,0-3.27-1,8.29,8.29,0,0,0-4.55,1.25,3.54,3.54,0,0,0-1.26,1.27,10.44,10.44,0,0,1,2.13-.75,4.86,4.86,0,0,1,2.93.06c.33.12.76.18.73,1a2.74,2.74,0,0,1-.85,1.69,30.33,30.33,0,0,1-5,5A117.72,117.72,0,0,1,385,582.05a39.69,39.69,0,0,1-9.49,3.48,4.11,4.11,0,0,1-2.15,0C372.44,585.15,372.28,584.53,372.66,582.62Z" transform="translate(-1.99 -149.55)"/><path class="cls-25" d="M392.25,539.3c-.23-.35-.47-.69-.68-1.07-1.39-2.5-1.31-5.85.23-9.62a50,50,0,0,0,2.14-6.14c1.63-6.13,1.07-11.07-1.59-14.32a14.39,14.39,0,0,0-7-4.52,24.27,24.27,0,0,0-5-1.05c-.15,0-.3-.11-.5.11.14.34.41.35.62.47a33.57,33.57,0,0,1,7.58,5.33,11,11,0,0,1,2.37,3.3,10.43,10.43,0,0,1,.2,7.19,54.68,54.68,0,0,1-2.07,6.06c-2.15,5.43-1.66,9.2.4,11.89a8.26,8.26,0,0,0,3.26,2.62C392.25,539.55,392.28,539.46,392.25,539.3Z" transform="translate(-1.99 -149.55)"/><path class="cls-25" d="M383.8,571.85a14.64,14.64,0,0,0,4.55-.3c5-1.09,9.81-3.73,14.53-8.44a18.26,18.26,0,0,0,2.88-3.61,5.64,5.64,0,0,0,1.05-3,1.41,1.41,0,0,0-1.16-1.59,3.37,3.37,0,0,0-1.65-.12c0,.12,0,.19,0,.21.59.9.49,1.54-.44,2.59a19.5,19.5,0,0,1-3.11,2.58,34,34,0,0,1-12.22,6.13.68.68,0,0,0-.55.33A49.09,49.09,0,0,1,383.8,571.85Z" transform="translate(-1.99 -149.55)"/><path class="cls-25" d="M380.18,547a9.09,9.09,0,0,1,2.72.91,1,1,0,0,0,.64,0,44.69,44.69,0,0,0,11.64-3.53A73.28,73.28,0,0,0,406,538.67a34.51,34.51,0,0,0,5.84-4.52,7.44,7.44,0,0,0,1.35-1.7c.44-.78.46-1.41.06-1.82a1.41,1.41,0,0,0-.51-.35,12,12,0,0,0-9.65.57c-.07,0-.14.09-.29.18.26.18.5.08.72.07a15,15,0,0,1,4.25.2,2.11,2.11,0,0,1,1.07.5c.44.41.41,1-.11,1.66a9.78,9.78,0,0,1-2.47,2.24,64.5,64.5,0,0,1-11.07,5.92,94.6,94.6,0,0,1-14,4.92l-.8.22C380.28,546.75,380.17,546.73,380.18,547Z" transform="translate(-1.99 -149.55)"/><path class="cls-25" d="M405.63,542.37c.06.08.13.16.19.25a2.29,2.29,0,0,1-.4,2.85,12.68,12.68,0,0,1-2.83,2.34,44.91,44.91,0,0,1-16.53,7.61c-.32.07-.55.27-.81.76a19.15,19.15,0,0,1-2.51,3.73c.1.16.24.12.36.1a40.2,40.2,0,0,0,19-7.82,26.1,26.1,0,0,0,4.55-4.12,10.71,10.71,0,0,0,1.5-2.18c.66-1.27.69-2.33.07-3a3.33,3.33,0,0,0-2.43-.87C405.73,542.07,405.62,542.07,405.63,542.37Z" transform="translate(-1.99 -149.55)"/><path class="cls-25" d="M410,572.24a95.36,95.36,0,0,1-11.72,9,86.16,86.16,0,0,1-18,9.36,29,29,0,0,1-8.21,2,5.41,5.41,0,0,1-3.91-1,1.52,1.52,0,0,0,.1,1.08,3.12,3.12,0,0,0,2.12,2.09c2,.64,4.16.22,6.36-.4a55.17,55.17,0,0,0,11.64-5.17,112.38,112.38,0,0,0,13.47-8.87,50.31,50.31,0,0,0,7-6.22,13.26,13.26,0,0,0,1.49-1.93C410.21,571.84,410.06,572.17,410,572.24Z" transform="translate(-1.99 -149.55)"/><path class="cls-25" d="M378.11,544.18c-.62-.79-1.5-.61-2.36-.42a8.32,8.32,0,0,0-4.78,3.38c-2.9,3.76-3.91,9.22-2.33,12.77a7.16,7.16,0,0,0,4.7,4.15,14.36,14.36,0,0,0,6.37.33,1,1,0,0,0,.23-.09c0-.56-.31-.49-.53-.56a12.49,12.49,0,0,1-5.51-3,8.29,8.29,0,0,1-2.5-4.6c-.93-4.68,2.07-11,5.41-11.56l1.06-.12C378,544.55,378.12,544.49,378.11,544.18Z" transform="translate(-1.99 -149.55)"/><path class="cls-65" d="M405.63,542.37l.21-.31c-.1-.11-.23-.11-.4,0C405.43,542.29,405.53,542.34,405.63,542.37Z" transform="translate(-1.99 -149.55)"/><path class="cls-66" d="M379.4,502.68a.15.15,0,0,0,.1-.18.1.1,0,0,0-.12-.07.11.11,0,0,0-.09.15C379.3,502.64,379.37,502.65,379.4,502.68Z" transform="translate(-1.99 -149.55)"/><path class="cls-67" d="M378.11,544.18l-.24.33c.12.07.27.21.4-.07S378.2,544.21,378.11,544.18Z" transform="translate(-1.99 -149.55)"/><path class="cls-68" d="M392.25,539.3l-.12.25c.08.16.19.17.34.13C392.48,539.37,392.36,539.35,392.25,539.3Z" transform="translate(-1.99 -149.55)"/><path class="cls-69" d="M380.18,547l.2-.27c-.13,0-.28-.14-.4.19C379.94,547,380.08,547.08,380.18,547Z" transform="translate(-1.99 -149.55)"/><path class="cls-70" d="M410,572.24h.27c.06-.07.13-.21.09-.26S410.08,572.07,410,572.24Z" transform="translate(-1.99 -149.55)"/><path class="cls-53" d="M498.17,511.48c-5-15-11.68-29.54-17.6-44.28h0c-1.15-2.79-4.18-15.71-5.88-19.69-4.23-5.34-8.42-13-15.19-16.76-10,6-4.18,16.62-8.75,24.2l-.9,7.72a29.34,29.34,0,0,1-1.33,6.28,19,19,0,0,0-1.14,2.92,20.45,20.45,0,0,1-4.13,6.13h0a9.34,9.34,0,0,0-1.57,1.24l-5.63,7.84c-4.92,5.35-21.25,9.28-2.7,17.54h0c-4.49,3.72-8.29,9.1-13.58,10.83-17.23,5.63-30.39,32.11-21.87,46.14,11.7,19.24,22.27,22.1,52.19,14.14,8.8-5.92,18.38-11.1,26.23-17.9C490.77,545.35,505,531.86,498.17,511.48Z" transform="translate(-1.99 -149.55)"/></svg>